{"title":"Punjabian Da King (2015) 720p - Untouched WEB HD - IcTv Lottery ","uid":11823050,"size":1687429933,"categoryP":"video","categoryS":"other","magnet":"?xt=urn:btih:edc61f2f303e9dede9fc6b6941b3e3f50eeab73c&amp;dn=Punjabian+Da+King+%282015%29+720p+-+Untouched+WEB+HD+-+IcTv+Lottery+&amp;tr=udp%3A%2F%2Ftracker.openbittorrent.com%3A80&amp;tr=udp%3A%2F%2Fopen.demonii.com%3A1337&amp;tr=udp%3A%2F%2Ftracker.coppersurfer.tk%3A6969&amp;tr=udp%3A%2F%2Fexodus.desync.com%3A6969","seeders":1,"leechers":2,"uploader":"SS132203","files":4,"time":1429352425,"description":"Punjabian Da King (2015) 720p - Untouched WEB HD - IcTv Lottery Exclusive -={SPARROW}=-\n &lt;a href=&quot;\nhttp://imgsparrow.co/image/LH&quot; rel=&quot;nofollow&quot; target=&quot;_NEW&quot;&gt;\nhttp://imgsparrow.co/image/LH&lt;/a&gt;\n &lt;a href=&quot;\nhttp://imgsparrow.co/image/9b&quot; rel=&quot;nofollow&quot; target=&quot;_NEW&quot;&gt;\nhttp://imgsparrow.co/image/9b&lt;/a&gt;\n\nMovie Info\nBanner : Dashmesh Movies\nYear : 2015\nCast : Navraj Hans, Keeya khanna, ...\nVideo: AVC\nAudio : AAC\nGenre : Comedy, Drama,Action\nSubtitles : None\nResolution : 720p\nRuntime : 1hr 47min xx\nSource : Team IcTv\n\nFormat                                   : MPEG-4\nFormat profile                           : Base Media / Version 2\nCodec ID                                 : mp42\nFile size                                : 1.54 GiB\nDuration                                 : 1h 47mn\nOverall bit rate mode                    : Variable\nOverall bit rate                         : 2 043 Kbps\n\nVideo\nID                                       : 1\nFormat                                   : AVC\nFormat/Info                              : Advanced Video Codec\nFormat profile                           : &lt;a class=&quot;__cf_email__&quot; href=&quot;/cdn-cgi/l/email-protection&quot; data-cfemail=&quot;5911303e3119156a7768&quot;&gt;[email&amp;#160;protected]&lt;/a&gt;&lt;script cf-hash='f9e31' type=&quot;text/javascript&quot;&gt;\n/* &lt;![CDATA[ */!function(){try{var t=&quot;currentScript&quot;in document?document.currentScript:function(){for(var t=document.getElementsByTagName(&quot;script&quot;),e=t.length;e--;)if(t[e].getAttribute(&quot;cf-hash&quot;))return t[e]}();if(t&amp;&amp;t.previousSibling){var e,r,n,i,c=t.previousSibling,a=c.getAttribute(&quot;data-cfemail&quot;);if(a){for(e=&quot;&quot;,r=parseInt(a.substr(0,2),16),n=2;a.length-n;n+=2)i=parseInt(a.substr(n,2),16)^r,e+=String.fromCharCode(i);e=document.createTextNode(e),c.parentNode.replaceChild(e,c)}}}catch(u){}}();/* ]]&gt; */&lt;/script&gt;\nFormat settings, CABAC                   : Yes\nFormat settings, ReFrames                : 1 frame\nFormat settings, GOP                     : M=1, N=60\nCodec ID                                 : avc1\nCodec ID/Info                            : Advanced Video Coding\nDuration                                 : 1h 47mn\nBit rate                                 : 1 849 Kbps\nMaximum bit rate                         : 5 975 Kbps\nWidth                                    : 1 280 pixels\nHeight                                   : 720 pixels\nDisplay aspect ratio                     : 16:9\nFrame rate mode                          : Constant\nFrame rate                               : 24.000 fps\nColor space                              : YUV\nChroma subsampling                       : 4:2:0\nBit depth                                : 8 bits\nScan type                                : Progressive\nBits/(Pixel*Frame)                       : 0.084\nStream size                              : 1.39 GiB (90%)\n\nAudio\nID                                       : 2\nFormat                                   : AAC\nFormat/Info                              : Advanced Audio Codec\nFormat profile                           : LC\nCodec ID                                 : 40\nDuration                                 : 1h 47mn\nBit rate mode                            : Variable\nBit rate                                 : 192 Kbps\nMaximum bit rate                         : 202 Kbps\nChannel(s)                               : 2 channels\nChannel positions                        : Front: L R\nSampling rate                            : 44.1 KHz\nCompression mode                         : Lossy\nStream size                              : 148 MiB (9%)\n &lt;a href=&quot;\nhttp://imgsparrow.co/image/9h&quot; rel=&quot;nofollow&quot; target=&quot;_NEW&quot;&gt;\nhttp://imgsparrow.co/image/9h&lt;/a&gt;\n &lt;a href=&quot;\nhttp://imgsparrow.co/image/LT&quot; rel=&quot;nofollow&quot; target=&quot;_NEW&quot;&gt;\nhttp://imgsparrow.co/image/LT&lt;/a&gt; &lt;a href=&quot;\nhttp://imgsparrow.co/image/Lb&quot; rel=&quot;nofollow&quot; target=&quot;_NEW&quot;&gt;\nhttp://imgsparrow.co/image/Lb&lt;/a&gt; &lt;a href=&quot;\nhttp://imgsparrow.co/image/Lh&quot; rel=&quot;nofollow&quot; target=&quot;_NEW&quot;&gt;\nhttp://imgsparrow.co/image/Lh&lt;/a&gt; &lt;a href=&quot;\nhttp://imgsparrow.co/image/Lj&quot; rel=&quot;nofollow&quot; target=&quot;_NEW&quot;&gt;\nhttp://imgsparrow.co/image/Lj&lt;/a&gt; &lt;a href=&quot;\nhttp://imgsparrow.co/image/Lr&quot; rel=&quot;nofollow&quot; target=&quot;_NEW&quot;&gt;\nhttp://imgsparrow.co/image/Lr&lt;/a&gt; &lt;a href=&quot;\nhttp://imgsparrow.co/image/LD&quot; rel=&quot;nofollow&quot; target=&quot;_NEW&quot;&gt;\nhttp://imgsparrow.co/image/LD&lt;/a&gt; &lt;a href=&quot;\nhttp://imgsparrow.co/image/Le&quot; rel=&quot;nofollow&quot; target=&quot;_NEW&quot;&gt;\nhttp://imgsparrow.co/image/Le&lt;/a&gt; &lt;a href=&quot;\nhttp://imgsparrow.co/image/Lg&quot; rel=&quot;nofollow&quot; target=&quot;_NEW&quot;&gt;\nhttp://imgsparrow.co/image/Lg&lt;/a&gt;\n\nSample Withing Torrent\nAll Credit Goes To Intellect Clever &amp; IcTv\n &lt;a href=&quot;\nhttp://imgsparrow.org/images/2015/02/22/SPARROW.gif&quot; rel=&quot;nofollow&quot; target=&quot;_NEW&quot;&gt;\nhttp://imgsparrow.org/images/2015/02/22/SPARROW.gif&lt;/a&gt;","torrent":{"xt":"urn:btih:edc61f2f303e9dede9fc6b6941b3e3f50eeab73c","amp;dn":"Punjabian+Da+King+%282015%29+720p+-+Untouched+WEB+HD+-+IcTv+Lottery+","amp;tr":["udp%3A%2F%2Ftracker.openbittorrent.com%3A80","udp%3A%2F%2Fopen.demonii.com%3A1337","udp%3A%2F%2Ftracker.coppersurfer.tk%3A6969","udp%3A%2F%2Fexodus.desync.com%3A6969"],"infoHash":"edc61f2f303e9dede9fc6b6941b3e3f50eeab73c","infoHashBuffer":{"type":"Buffer","data":[237,198,31,47,48,62,157,237,233,252,107,105,65,179,227,245,14,234,183,60]},"announce":[],"urlList":[]}}